<mxfile>
    <diagram id="C6UbfDmuzJCe7no7wokh" name="Page-1">
        <mxGraphModel dx="473" dy="195" grid="1" gridSize="10" guides="1" tooltips="1" connect="1" arrows="1" fold="1" page="1" pageScale="1" pageWidth="827" pageHeight="1169" math="0" shadow="0">
            <root>
                <mxCell id="0"/>
                <mxCell id="1" parent="0"/>
                <mxCell id="2" value="Context:&lt;br&gt;Flashlight" style="shape=umlLifeline;perimeter=lifelinePerimeter;whiteSpace=wrap;html=1;container=1;collapsible=0;recursiveResize=0;outlineConnect=0;" vertex="1" parent="1">
                    <mxGeometry x="120" y="90" width="100" height="300" as="geometry"/>
                </mxCell>
                <mxCell id="5" value="" style="html=1;points=[];perimeter=orthogonalPerimeter;" vertex="1" parent="2">
                    <mxGeometry x="45" y="60" width="10" height="220" as="geometry"/>
                </mxCell>
                <mxCell id="3" value="State: Off" style="shape=umlLifeline;perimeter=lifelinePerimeter;whiteSpace=wrap;html=1;container=1;collapsible=0;recursiveResize=0;outlineConnect=0;" vertex="1" parent="1">
                    <mxGeometry x="310" y="90" width="100" height="300" as="geometry"/>
                </mxCell>
                <mxCell id="22" value="" style="html=1;points=[];perimeter=orthogonalPerimeter;" vertex="1" parent="3">
                    <mxGeometry x="45" y="160" width="10" height="50" as="geometry"/>
                </mxCell>
                <mxCell id="4" value="State: On" style="shape=umlLifeline;perimeter=lifelinePerimeter;whiteSpace=wrap;html=1;container=1;collapsible=0;recursiveResize=0;outlineConnect=0;" vertex="1" parent="1">
                    <mxGeometry x="500" y="90" width="100" height="300" as="geometry"/>
                </mxCell>
                <mxCell id="7" value="" style="html=1;points=[];perimeter=orthogonalPerimeter;" vertex="1" parent="4">
                    <mxGeometry x="45" y="70" width="10" height="60" as="geometry"/>
                </mxCell>
                <mxCell id="6" value="" style="endArrow=block;endFill=1;endSize=6;html=1;exitX=0.99;exitY=0.046;exitDx=0;exitDy=0;exitPerimeter=0;entryX=-0.024;entryY=0.001;entryDx=0;entryDy=0;entryPerimeter=0;" edge="1" parent="1" source="5" target="7">
                    <mxGeometry width="100" relative="1" as="geometry">
                        <mxPoint x="180" y="160" as="sourcePoint"/>
                        <mxPoint x="540" y="159" as="targetPoint"/>
                    </mxGeometry>
                </mxCell>
                <mxCell id="12" value="EventHandel(this)" style="edgeLabel;html=1;align=center;verticalAlign=middle;resizable=0;points=[];" vertex="1" connectable="0" parent="6">
                    <mxGeometry x="0.1207" y="1" relative="1" as="geometry">
                        <mxPoint x="-22.33" y="0.91" as="offset"/>
                    </mxGeometry>
                </mxCell>
                <mxCell id="9" value="" style="endArrow=block;endFill=1;endSize=6;html=1;exitX=-0.015;exitY=0.285;exitDx=0;exitDy=0;exitPerimeter=0;entryX=1.051;entryY=0.137;entryDx=0;entryDy=0;entryPerimeter=0;" edge="1" parent="1" source="7" target="5">
                    <mxGeometry width="100" relative="1" as="geometry">
                        <mxPoint x="540" y="180" as="sourcePoint"/>
                        <mxPoint x="175" y="181" as="targetPoint"/>
                    </mxGeometry>
                </mxCell>
                <mxCell id="13" value="PowerOn()" style="edgeLabel;html=1;align=center;verticalAlign=middle;resizable=0;points=[];" vertex="1" connectable="0" parent="9">
                    <mxGeometry x="-0.1529" y="-2" relative="1" as="geometry">
                        <mxPoint x="-32.28" y="1.9" as="offset"/>
                    </mxGeometry>
                </mxCell>
                <mxCell id="14" value="" style="endArrow=block;endFill=1;endSize=6;html=1;exitX=-0.08;exitY=0.837;exitDx=0;exitDy=0;exitPerimeter=0;entryX=1.034;entryY=0.273;entryDx=0;entryDy=0;entryPerimeter=0;" edge="1" parent="1" source="7" target="5">
                    <mxGeometry width="100" relative="1" as="geometry">
                        <mxPoint x="300" y="230" as="sourcePoint"/>
                        <mxPoint x="180" y="210" as="targetPoint"/>
                    </mxGeometry>
                </mxCell>
                <mxCell id="15" value="SetState(New Off())" style="edgeLabel;html=1;align=center;verticalAlign=middle;resizable=0;points=[];" vertex="1" connectable="0" parent="14">
                    <mxGeometry x="-0.0671" relative="1" as="geometry">
                        <mxPoint x="-12.1" as="offset"/>
                    </mxGeometry>
                </mxCell>
                <mxCell id="19" value="Power()" style="html=1;verticalAlign=bottom;startArrow=oval;startFill=1;endArrow=block;startSize=8;entryX=-0.024;entryY=0.001;entryDx=0;entryDy=0;entryPerimeter=0;" edge="1" parent="1" target="5">
                    <mxGeometry x="0.0558" y="-10" width="60" relative="1" as="geometry">
                        <mxPoint x="70" y="150" as="sourcePoint"/>
                        <mxPoint x="130" y="160" as="targetPoint"/>
                        <mxPoint as="offset"/>
                    </mxGeometry>
                </mxCell>
                <mxCell id="20" value="Power()" style="html=1;verticalAlign=bottom;startArrow=oval;startFill=1;endArrow=block;startSize=8;entryX=-0.024;entryY=0.001;entryDx=0;entryDy=0;entryPerimeter=0;" edge="1" parent="1">
                    <mxGeometry x="0.0558" y="-10" width="60" relative="1" as="geometry">
                        <mxPoint x="70" y="239.70999999999998" as="sourcePoint"/>
                        <mxPoint x="164.76" y="239.92999999999995" as="targetPoint"/>
                        <mxPoint as="offset"/>
                    </mxGeometry>
                </mxCell>
                <mxCell id="23" value="" style="endArrow=block;endFill=1;endSize=6;html=1;exitX=1.083;exitY=0.455;exitDx=0;exitDy=0;exitPerimeter=0;entryX=-0.022;entryY=-0.001;entryDx=0;entryDy=0;entryPerimeter=0;" edge="1" parent="1" source="5" target="22">
                    <mxGeometry width="100" relative="1" as="geometry">
                        <mxPoint x="184.89999999999998" y="170.12" as="sourcePoint"/>
                        <mxPoint x="350" y="250" as="targetPoint"/>
                    </mxGeometry>
                </mxCell>
                <mxCell id="24" value="EventHandel(this)" style="edgeLabel;html=1;align=center;verticalAlign=middle;resizable=0;points=[];" vertex="1" connectable="0" parent="23">
                    <mxGeometry x="0.1207" y="1" relative="1" as="geometry">
                        <mxPoint x="-22.33" y="0.91" as="offset"/>
                    </mxGeometry>
                </mxCell>
                <mxCell id="25" value="" style="endArrow=block;endFill=1;endSize=6;html=1;entryX=1.052;entryY=0.545;entryDx=0;entryDy=0;entryPerimeter=0;exitX=0.003;exitY=0.401;exitDx=0;exitDy=0;exitPerimeter=0;" edge="1" parent="1" source="22" target="5">
                    <mxGeometry width="100" relative="1" as="geometry">
                        <mxPoint x="350" y="270" as="sourcePoint"/>
                        <mxPoint x="185.51" y="190.14" as="targetPoint"/>
                    </mxGeometry>
                </mxCell>
                <mxCell id="26" value="PowerOff()" style="edgeLabel;html=1;align=center;verticalAlign=middle;resizable=0;points=[];" vertex="1" connectable="0" parent="25">
                    <mxGeometry x="-0.1529" y="-2" relative="1" as="geometry">
                        <mxPoint x="-32.28" y="1.9" as="offset"/>
                    </mxGeometry>
                </mxCell>
                <mxCell id="27" value="" style="endArrow=block;endFill=1;endSize=6;html=1;exitX=-0.053;exitY=0.794;exitDx=0;exitDy=0;exitPerimeter=0;entryX=1.029;entryY=0.636;entryDx=0;entryDy=0;entryPerimeter=0;" edge="1" parent="1" source="22" target="5">
                    <mxGeometry width="100" relative="1" as="geometry">
                        <mxPoint x="554.2" y="220.21999999999997" as="sourcePoint"/>
                        <mxPoint x="185.33999999999992" y="220.06" as="targetPoint"/>
                    </mxGeometry>
                </mxCell>
                <mxCell id="28" value="SetState(New On())" style="edgeLabel;html=1;align=center;verticalAlign=middle;resizable=0;points=[];" vertex="1" connectable="0" parent="27">
                    <mxGeometry x="-0.0671" relative="1" as="geometry">
                        <mxPoint x="-12.1" as="offset"/>
                    </mxGeometry>
                </mxCell>
            </root>
        </mxGraphModel>
    </diagram>
</mxfile>